# xmcd CD database file
#
# Track frame offsets:
#	150
#	10974
#	30594
#	36317
#	53607
#	71660
#	78759
#	100179
#	117434
#	142937
#	160342
#	178276
#	193484
#	209486
#
# Disc length: 2992 seconds
#
# Revision: 0
# Processed by: cddbd v1.5.2PL0 Copyright (c) Steve Scherf et al.
# Submitted via: CDex 1.51
#
DISCID=c50bae0e
DTITLE=Miltiadis Pashalidis - Xenios
DYEAR=2010
DGENRE=Pop Ethnic - Greek
TTITLE0=To Bals ths Elektras
TTITLE1=Xenios
TTITLE2=Limni (Kournas)
TTITLE3=Den Pino Monaxos
TTITLE4=Akrovatis
TTITLE5=Mavra De Bano Sto Kormi
TTITLE6=Osou Baroun Ta Sidera
TTITLE7=Barus Piskopianos
TTITLE8=Spoudi Ston Andrea Rodino
TTITLE9=To Meraklidiko Pouli
TTITLE10=Parousia
TTITLE11=Palia Kalokairia
TTITLE12=Hrakleio Kalamata
TTITLE13=Erotokritos
EXTD=YEAR: 2010
EXTT0=
EXTT1=
EXTT2=
EXTT3=
EXTT4=
EXTT5=
EXTT6=
EXTT7=
EXTT8=
EXTT9=
EXTT10=
EXTT11=
EXTT12=
EXTT13=
PLAYORDER=
